<?xml version="1.0" standalone="no"?>
<!DOCTYPE svg PUBLIC "-//W3C//DTD SVG 1.1//EN" "http://www.w3.org/Graphics/SVG/1.1/DTD/svg11.dtd" >
<svg xmlns="http://www.w3.org/2000/svg">
<metadata></metadata>
<defs>
<font id="husky_stashregular" horiz-adv-x="1142" >
<font-face units-per-em="2048" ascent="1296" descent="-752" />
<missing-glyph horiz-adv-x="567" />
<glyph horiz-adv-x="2048" />
<glyph horiz-adv-x="2048" />
<glyph unicode="&#xd;" horiz-adv-x="2048" />
<glyph unicode=" "  horiz-adv-x="567" />
<glyph unicode="&#x09;" horiz-adv-x="567" />
<glyph unicode="&#xa0;" horiz-adv-x="567" />
<glyph unicode="!" horiz-adv-x="704" d="M88 -186l62 186h450l-63 -186h-449zM211 186l301 936h451l-304 -936h-448z" />
<glyph unicode="&#x22;" horiz-adv-x="1198" d="M592 1049l8 374h449l-234 -374h-223zM1159 1049v374h451l-234 -374h-217z" />
<glyph unicode="#" horiz-adv-x="1183" d="M68 334v149h243l72 367h-227v151h262l59 326h119l-61 -326h264l65 326h117l-66 -326h201v-151h-231l-78 -367h223v-149h-250l-71 -334h-113l68 334h-267l-69 -334h-115l68 334h-213zM426 481h266l80 373h-270z" />
<glyph unicode="%" horiz-adv-x="1394" d="M225 0l926 1122h446l-923 -1122h-449zM553 1004q0 48 47 83t100 35q86 0 86 -69q0 -48 -47 -83.5t-100 -35.5q-86 0 -86 70zM1034 70q0 46 47.5 81t100.5 35q86 0 86 -69q0 -46 -47 -81.5t-99 -35.5q-88 0 -88 70z" />
<glyph unicode="&#x26;" horiz-adv-x="1622" d="M279 139q0 26 6 47l241 748q31 86 109.5 137t177.5 51h672l-60 -188h-448l-62 -186h852l-59 -187h-180l-62 -186h242l-133 -375h-1126q-79 0 -124.5 40t-45.5 99zM793 375h450l60 186h-447z" />
<glyph unicode="'" horiz-adv-x="636" d="M592 1049l8 374h449l-234 -374h-223z" />
<glyph unicode="(" horiz-adv-x="559" d="M72 520q0 459 239 862h172q-262 -361 -262 -862q0 -450 266 -862h-176q-239 400 -239 862z" />
<glyph unicode=")" horiz-adv-x="555" d="M70 -342q144 223 205 419t61 443q0 253 -64.5 457.5t-201.5 404.5h172q239 -396 239 -862t-239 -862h-172z" />
<glyph unicode="*" horiz-adv-x="1523" d="M330 551l291 201l-13 262l322 -19l258 226l110 -226l336 19l-182 -262l158 -201l-338 -98l-135 -271l-240 137l-332 -137l41 271z" />
<glyph unicode="+" horiz-adv-x="1112" d="M305 561l60 187h225l59 186h449l-60 -186h222l-60 -187h-223l-62 -186h-448l59 186h-221z" />
<glyph unicode="," horiz-adv-x="727" d="M156 -186l45 372h450l-196 -372h-299z" />
<glyph unicode="-" horiz-adv-x="1173" d="M330 561l63 187h895l-59 -187h-899z" />
<glyph unicode="." horiz-adv-x="774" d="M164 -186l61 186h449l-64 -186h-446z" />
<glyph unicode="0" horiz-adv-x="1370" d="M195 143q0 22 6 43l241 748q24 68 117.5 128t169.5 60h672q176 0 176 -123q0 -27 -12 -65l-242 -748q-24 -69 -116 -127.5t-169 -58.5h-673q-77 0 -123.5 42t-46.5 101zM711 375h223l182 559h-223z" />
<glyph unicode="1" horiz-adv-x="1009" d="M449 0l303 934h-226l64 188h448q179 0 179 -104q-5 -48 -17 -84l-303 -934h-448z" />
<glyph unicode="2" horiz-adv-x="1546" d="M-57 -614q0 15 10 53l362 1122q61 187 287 187h670l63 186h-448l59 188h674q180 0 180 -104q0 -21 -18 -84l-60 -186q-34 -107 -94 -147t-190 -40h-449q-102 0 -179.5 -53t-104.5 -133l-123 -375q-15 -47 -15 -70q0 -59 42.5 -87.5t135.5 -28.5h900l-183 -562h-1347 q-75 0 -123.5 37t-48.5 97z" />
<glyph unicode="3" horiz-adv-x="1454" d="M225 0l119 375h674l61 186h-448l61 187h449l59 186h-674l64 188h895q180 0 180 -108q0 -2 -5 -30.5t-11 -49.5l-52 -156q-8 -25 -34.5 -49t-67.5 -41l-86 -35q113 -37 113 -102q0 -1 -4 -21l-111 -344q-61 -186 -285 -186h-897z" />
<glyph unicode="4" horiz-adv-x="1427" d="M408 561l118 373h226l-60 -186h223l123 374h447l-121 -374h225l-61 -187h-225l-181 -561h-448l182 561h-448z" />
<glyph unicode="5" horiz-adv-x="1564" d="M-336 -748l182 562h899q224 0 285 186l121 375q10 32 16 82q0 104 -180 104h-674l183 561h899l-62 -188h-448l-62 -186h674q176 0 176 -125q0 -27 -12 -62l-365 -1122q-27 -84 -109 -135.5t-175 -51.5h-1348z" />
<glyph unicode="6" horiz-adv-x="1439" d="M279 139q0 26 6 47l241 748q31 86 109.5 137t177.5 51h672l-60 -188h-448l-62 -186h449q174 0 174 -130q0 -15 -10 -57l-121 -375q-61 -186 -285 -186h-673q-79 0 -124.5 40t-45.5 99zM793 375h450l60 186h-447z" />
<glyph unicode="7" horiz-adv-x="1175" d="M225 0l752 934h-451l64 188h895l-60 -188l-751 -934h-449z" />
<glyph unicode="8" horiz-adv-x="1368" d="M193 141q0 24 6 45l110 344q21 70 193 123q-115 56 -115 109q2 6 4 16l49 156q26 79 112 133.5t175 54.5h672q174 0 174 -131q0 -12 -10 -57l-52 -156q-18 -57 -188 -125q111 -50 111 -106q0 -1 -4 -17l-109 -344q-29 -78 -112 -132t-175 -54h-672q-77 0 -123 41t-46 100 zM707 375h225l59 186h-221zM829 748h226l59 186h-223z" />
<glyph unicode="9" horiz-adv-x="1368" d="M137 0l121 375h674l59 186h-446q-78 0 -126 40t-48 101q0 13 10 46l59 186q26 73 108.5 130.5t178.5 57.5h672q75 0 124.5 -36t49.5 -97q0 -17 -10 -55l-242 -748q-32 -79 -116 -132.5t-171 -53.5h-897zM604 748h449l61 186h-448z" />
<glyph unicode=":" horiz-adv-x="696" d="M211 186l59 189h449l-60 -189h-448zM330 561l63 187h449l-62 -187h-450z" />
<glyph unicode=";" horiz-adv-x="692" d="M221 0l45 375h449l-197 -375h-297zM326 561l63 187h447l-60 -187h-450z" />
<glyph unicode="&#x3c;" horiz-adv-x="960" d="M287 561l61 187l764 280l-51 -156l-510 -186l-19 -63l386 -187l-50 -155z" />
<glyph unicode="=" horiz-adv-x="1112" d="M270 375l60 186h899l-62 -186h-897zM393 748l60 186h899l-64 -186h-895z" />
<glyph unicode="&#x3e;" horiz-adv-x="849" d="M197 281l51 155l508 187l20 63l-387 186l49 156l582 -280l-62 -187z" />
<glyph unicode="?" horiz-adv-x="1294" d="M-29 -375l62 189h448l-59 -189h-451zM94 0l182 561q23 71 110.5 129t174.5 58h449l61 186h-450l61 188h672q180 0 180 -108q0 -33 -14 -80l-64 -186q-24 -77 -110.5 -132t-174.5 -55h-223q-223 0 -284 -186l-123 -375h-447z" />
<glyph unicode="@" horiz-adv-x="1155" d="M43 682q0 136 44 249.5t119 187t171 113.5t201 40q256 0 390 -137.5t134 -419.5q0 -38 -5 -76t-21 -84t-41.5 -80.5t-72.5 -58t-108 -23.5q-120 0 -160 88q-57 -45 -135 -45q-85 0 -142 54t-57 153t51 153t144 54q79 0 123 -33l10 31h88v-264q0 -90 80 -90q50 0 88.5 58 t38.5 153q0 101 -22 181t-69 141.5t-126.5 94.5t-187.5 33q-181 0 -296.5 -124t-115.5 -351q0 -230 97.5 -355.5t271.5 -152.5l-15 -119q-155 21 -264 109t-161 220.5t-52 299.5zM457 643q0 -106 110 -106q72 0 111 51v121q-40 43 -103 43q-118 0 -118 -109z" />
<glyph unicode="A" horiz-adv-x="1224" d="M41 0l303 934q24 76 111 132t174 56h671q179 0 179 -121q0 -23 -13 -67l-305 -934q-8 -21 -8 -57q0 -129 172 -129h897l-182 -562h-1346q-65 0 -117.5 42t-52.5 102q0 30 8 43l365 1122h-225l-183 -561h-448zM731 748h225l60 186h-223z" />
<glyph unicode="B" horiz-adv-x="1372" d="M143 0l365 1122h897q176 0 176 -112q0 -36 -12 -76l-49 -156q-22 -67 -193 -125q113 -37 113 -102q0 -19 -2 -21l-113 -344q-20 -68 -109.5 -127t-175.5 -59h-897zM715 375h221l63 186h-225zM836 748h223l63 186h-225z" />
<glyph unicode="C" horiz-adv-x="1366" d="M152 131q0 36 8 55l243 748q25 69 115 128.5t170 59.5h899l-63 -188h-670l-182 -559h669l-118 -375h-899q-172 0 -172 131z" />
<glyph unicode="D" horiz-adv-x="1376" d="M145 0l365 1122h897q77 0 124.5 -38t47.5 -99q0 -13 -10 -51l-242 -748q-24 -77 -109 -131.5t-176 -54.5h-897zM715 375h225l182 559h-225z" />
<glyph unicode="E" horiz-adv-x="1355" d="M127 145q0 13 4 41l246 748q22 67 115 127.5t170 60.5h897l-62 -188h-674l-59 -186h448l-61 -187h-449l-59 -186h672l-121 -375h-897q-73 0 -121.5 42t-48.5 103z" />
<glyph unicode="F" horiz-adv-x="1220" d="M111 0l303 934q20 68 112.5 128t173.5 60h895l-59 -188h-674l-59 -186h448l-63 -187h-447l-182 -561h-448z" />
<glyph unicode="G" horiz-adv-x="1230" d="M109 141q0 24 6 45l241 748q25 70 114 129t173 59h895l-59 -188h-674l-182 -559h225l59 186h449l-182 -561q-5 -35 -5 -43q0 -66 46 -104.5t124 -38.5h897l-182 -562h-1347q-77 0 -123.5 39.5t-46.5 100.5q0 34 8 47l182 561h-448q-77 0 -123.5 41t-46.5 100z" />
<glyph unicode="H" horiz-adv-x="1214" d="M53 0l365 1122h446l-119 -374h224l121 374h448l-364 -1122q-9 -21 -9 -57q0 -129 172 -129h899l-182 -562h-1347q-78 0 -124 42t-46 102q0 30 8 43l362 1122h-225l-180 -561h-449z" />
<glyph unicode="I" horiz-adv-x="710" d="M150 0l362 1122h451l-363 -1122h-450z" />
<glyph unicode="J" horiz-adv-x="772" d="M-1159 -748l182 562h895q224 0 285 186l364 1122h449l-547 -1683q-25 -72 -110 -129.5t-175 -57.5h-1343z" />
<glyph unicode="K" horiz-adv-x="1138" d="M123 0l364 1122h449l-92 -280l315 280h225l-473 -422l332 -700q50 -106 101 -146t139 -40h1044l-182 -562h-1194q-162 0 -238 187l-280 819l-80 -258h-430z" />
<glyph unicode="L" horiz-adv-x="600" d="M-104 -614q0 26 6 53l549 1683h448l-364 -1122q-11 -37 -11 -47q0 -139 172 -139h897l-182 -562h-1343q-172 0 -172 134z" />
<glyph unicode="M" horiz-adv-x="1902" d="M25 0l364 1122h447l206 -747l693 747h448l-364 -1122q-7 -28 -7 -51q0 -135 170 -135h897l-182 -562h-1345q-172 0 -172 138q0 36 8 49l303 936l-346 -375h-449l-102 375l-123 -375h-446z" />
<glyph unicode="N" horiz-adv-x="1427" d="M43 0l365 1122h448l266 -561l181 561h450l-362 -1122q-13 -32 -13 -59q0 -127 174 -127h897l-182 -562h-1345q-174 0 -174 130q0 19 10 57l182 561l-266 561l-182 -561h-449z" />
<glyph unicode="O" horiz-adv-x="1370" d="M195 143q0 22 6 43l241 748q24 68 117.5 128t169.5 60h672q176 0 176 -123q0 -27 -12 -65l-242 -748q-24 -69 -116 -127.5t-169 -58.5h-673q-77 0 -123.5 42t-46.5 101zM711 375h223l182 559h-223z" />
<glyph unicode="P" horiz-adv-x="1269" d="M115 0l364 1122h899q63 0 117.5 -41.5t54.5 -95.5q0 -13 -10 -51l-59 -186q-25 -71 -111.5 -129t-173.5 -58h-448l-183 -561h-450zM807 748h225l62 186h-226z" />
<glyph unicode="Q" horiz-adv-x="1193" d="M98 141q0 24 6 45l246 748q26 79 109.5 133.5t175.5 54.5h672q174 0 174 -127q0 -11 -11 -61l-243 -748q-27 -80 -100 -134t-158 -54q-19 0 -27 2q-8 -19 -8 -55q0 -131 170 -131h899l-182 -562h-1346q-77 0 -123.5 42t-46.5 104q0 23 6 41l183 561h-226q-70 0 -120 41 t-50 100zM616 375h224l180 559h-221z" />
<glyph unicode="R" horiz-adv-x="1251" d="M66 0l362 1122h897q174 0 174 -118q0 -25 -10 -70l-41 -125q-35 -103 -238 -156q142 -44 142 -127q0 -8 -4 -28l-162 -498q-17 -50 -17 -80q0 -106 181 -106h895l-183 -562h-1343q-67 0 -118.5 43.5t-51.5 102.5q0 13 4 41l365 1122h-224l-182 -561h-446zM756 748h225 l59 186h-225z" />
<glyph unicode="S" horiz-adv-x="1445" d="M-422 -748l182 562h899q222 0 283 186l121 375q12 34 12 65q0 121 -174 121h-448q-172 0 -172 133q0 27 6 54l63 186q24 69 109.5 128.5t175.5 59.5h674l-64 -188h-446l-62 -186h672q174 0 174 -125q0 -38 -8 -62l-365 -1122q-24 -71 -115 -129t-169 -58h-1348z" />
<glyph unicode="T" horiz-adv-x="931" d="M96 -608q0 26 6 47l488 1495h-225l59 188h899l-63 -188h-222l-305 -934q-12 -40 -12 -70q0 -116 176 -116h897l-182 -562h-1346q-73 0 -121.5 40t-48.5 100z" />
<glyph unicode="U" horiz-adv-x="1327" d="M150 143q0 22 6 43l305 936h446l-241 -747h223l244 747h448l-303 -936q-26 -76 -113 -131t-174 -55h-672q-72 0 -120.5 41.5t-48.5 101.5z" />
<glyph unicode="V" horiz-adv-x="1269" d="M281 0l139 1122h450l-133 -747l357 747h446l-586 -1122h-673z" />
<glyph unicode="W" horiz-adv-x="2232" d="M348 0l141 1122h447l-131 -747l356 747h672l-129 -747l354 747h449l-590 -1122h-672l70 561l-295 -561h-672z" />
<glyph unicode="X" horiz-adv-x="1411" d="M125 0l407 561l-43 561h447l22 -280l203 280h449l-404 -561l39 -561h-446l-23 281l-203 -281h-448z" />
<glyph unicode="Y" horiz-adv-x="1257" d="M-1096 -748l183 562h899q113 0 192.5 50.5t91.5 135.5l140 1122h448l-129 -747l354 747h449l-883 -1683q-43 -82 -122.5 -134.5t-161.5 -52.5h-1461z" />
<glyph unicode="Z" horiz-adv-x="1308" d="M225 0l119 375l633 559h-451l64 188h895l-60 -188l-632 -559h450l-121 -375h-897z" />
<glyph unicode="_" horiz-adv-x="1056" d="M0 -31h1057v-262h-1057v262z" />
<glyph unicode="`" horiz-adv-x="374" d="M272 1075h164l131 -231h-90z" />
<glyph unicode="a" d="M197 137q0 22 6 49l123 375q22 69 109.5 128t174.5 59h674l-244 -748h-233l27 61q-113 -61 -183 -61h-284q-66 0 -118 39t-52 98zM715 375h221l63 186h-225z" />
<glyph unicode="b" horiz-adv-x="1118" d="M129 0l365 1122h450l-123 -374h223q79 0 128 -35.5t49 -96.5q0 -13 -11 -55l-123 -375q-28 -85 -109 -135.5t-175 -50.5h-674zM700 375h226l59 186h-225z" />
<glyph unicode="c" horiz-adv-x="1118" d="M186 131q0 13 11 55l122 375q19 70 113 128.5t172 58.5h674l-64 -187h-448l-59 -186h448l-123 -375h-672q-174 0 -174 131z" />
<glyph unicode="d" horiz-adv-x="1122" d="M184 143q0 28 9 43l118 375q25 69 114.5 128t170.5 59h225l123 374h449l-365 -1122h-674q-77 0 -123.5 39.5t-46.5 103.5zM477 375h223l60 186h-223z" />
<glyph unicode="e" horiz-adv-x="1146" d="M195 139q0 26 6 47l123 375q23 71 112 129t172 58h535q139 0 139 -86q0 -57 -65 -101l-283 -186h225l-121 -375h-671q-73 0 -122.5 40.5t-49.5 98.5zM711 375l286 186h-225z" />
<glyph unicode="f" horiz-adv-x="872" d="M141 0l301 934q26 80 107.5 134t179.5 54h451l-64 -188h-223l-121 -373h225l-63 -186h-223l-121 -375h-449z" />
<glyph unicode="g" horiz-adv-x="1157" d="M-758 -748l183 562h897q102 0 178 47.5t106 138.5h-223q-73 0 -121.5 44t-48.5 106q0 8 4 36l123 375q25 74 109.5 130.5t175.5 56.5h673l-426 -1309q-24 -78 -109.5 -132.5t-174.5 -54.5h-1346zM504 375h225l59 186h-223z" />
<glyph unicode="h" horiz-adv-x="1116" d="M131 0l365 1122h448l-123 -374h226q174 0 174 -127q0 -14 -11 -60l-182 -561h-223l182 561h-225l-182 -561h-449z" />
<glyph unicode="i" horiz-adv-x="690" d="M150 0l243 748h449l-242 -748h-450zM453 934l59 188h451l-62 -188h-448z" />
<glyph unicode="j" horiz-adv-x="690" d="M-1221 -748l183 562h897q223 0 284 186l242 748h451l-426 -1309q-25 -77 -113.5 -132t-171.5 -55h-1346zM449 934l59 188h448l-59 -188h-448z" />
<glyph unicode="k" horiz-adv-x="1249" d="M104 0l365 1122h449l-183 -561l285 187h233l-430 -287l404 -461h-449l-160 195l-65 -195h-449z" />
<glyph unicode="l" horiz-adv-x="692" d="M150 0l362 1122h451l-363 -1122h-450z" />
<glyph unicode="m" horiz-adv-x="1587" d="M145 0l244 748h1120q75 0 123.5 -36.5t48.5 -97.5q0 -26 -6 -53l-184 -561h-223l182 561h-225l-183 -561h-223l182 561h-225l-182 -561h-449z" />
<glyph unicode="n" horiz-adv-x="1138" d="M145 0l244 748h672q72 0 121 -41.5t49 -102.5q0 -22 -6 -43l-183 -561h-223l182 561h-225l-182 -561h-449z" />
<glyph unicode="o" horiz-adv-x="1126" d="M193 152q0 19 6 34l120 375q24 75 113 131t172 56h449q74 0 123 -38.5t49 -99.5q0 -30 -8 -49l-121 -375q-25 -73 -110 -129.5t-177 -56.5h-447q-67 0 -118 45.5t-51 106.5zM483 375h224l63 186h-225z" />
<glyph unicode="p" horiz-adv-x="1146" d="M-1206 -748l182 562h897q224 0 285 186l241 748h674q172 0 172 -138q0 -30 -8 -49l-121 -375q-20 -68 -109.5 -127t-175.5 -59h-225l-182 -561q-24 -72 -114.5 -129.5t-170.5 -57.5h-1345zM729 375h225l60 186h-226z" />
<glyph unicode="q" horiz-adv-x="970" d="M115 145q0 23 6 41l121 375q21 66 115 126.5t169 60.5h674l-244 -748q-10 -42 -10 -59q0 -127 176 -127h895l-182 -562h-1346q-170 0 -170 138q0 24 7 49l182 561h-223q-75 0 -122.5 43t-47.5 102zM406 375h225l59 186h-223z" />
<glyph unicode="r" horiz-adv-x="843" d="M135 0l180 561q25 70 113 128.5t174 58.5h447l-62 -187h-223l-182 -561h-447z" />
<glyph unicode="s" horiz-adv-x="1296" d="M-432 -748l184 562h750q79 0 147 31.5t112 95t44 147.5q0 98 -184 98h-224q-172 0 -172 136q0 26 6 53l64 186q24 72 114 129.5t171 57.5h448l-61 -187h-224l-61 -186h448q173 0 173 -131q0 -34 -9 -58l-241 -747q-29 -72 -118.5 -129.5t-168.5 -57.5h-1198z" />
<glyph unicode="t" horiz-adv-x="897" d="M195 135q0 24 6 51l305 936h448l-120 -374h223l-60 -187h-225l-61 -186h223l-119 -375h-448q-75 0 -123.5 36.5t-48.5 98.5z" />
<glyph unicode="u" d="M199 141q0 32 8 45l182 562h447l-121 -373h225l121 373h223l-182 -562q-27 -79 -107.5 -132.5t-177.5 -53.5h-448q-77 0 -123.5 40t-46.5 101z" />
<glyph unicode="v" horiz-adv-x="1136" d="M397 0l21 748h446l-8 -373l234 373h223l-467 -748h-449z" />
<glyph unicode="w" horiz-adv-x="1826" d="M381 0l18 748h449l-8 -373l233 373h449l-11 -373l234 373h225l-467 -748h-448l8 375l-234 -375h-448z" />
<glyph unicode="x" horiz-adv-x="1185" d="M182 0l381 338l-174 410h447l53 -119l135 119h225l-301 -267l207 -481h-448l-84 195l-215 -195h-226z" />
<glyph unicode="y" horiz-adv-x="1079" d="M-836 -748l183 562h895q103 0 177 49.5t107 136.5h-221q-174 0 -174 135q0 13 10 51l183 562h223l-123 -373h225l123 373h449l-426 -1309q-27 -84 -109 -135.5t-176 -51.5h-1346z" />
<glyph unicode="z" horiz-adv-x="1046" d="M186 0l123 375l322 186h-262l59 187h713l-62 -187l-321 -186h315l-119 -375h-768z" />
<glyph unicode="&#xa1;" horiz-adv-x="704" d="M86 -186l305 934h449l-303 -934h-451zM451 934l61 188h449l-60 -188h-450z" />
<glyph unicode="&#xa8;" horiz-adv-x="804" d="M465 1006q0 50 29.5 80t78.5 30q45 0 77 -31t32 -79q0 -44 -32.5 -76.5t-76.5 -32.5q-48 0 -78 31.5t-30 77.5zM795 1006q0 48 32 79t76 31q48 0 78.5 -30.5t30.5 -79.5q0 -45 -31 -77t-78 -32q-43 0 -75.5 32.5t-32.5 76.5z" />
<glyph unicode="&#xa9;" horiz-adv-x="1521" d="M98 664q0 181 89.5 334.5t242.5 242t334 88.5q136 0 259.5 -52.5t212.5 -141.5t141.5 -212t52.5 -259q0 -182 -89 -335t-242 -242t-335 -89q-181 0 -334 89t-242.5 242.5t-89.5 334.5zM178 662q0 -161 78 -297t213.5 -214.5t296.5 -78.5t297.5 78.5t215.5 214.5t79 297 q0 120 -47 230t-126 189.5t-188.5 126.5t-230.5 47q-161 0 -296.5 -80t-213.5 -216t-78 -297zM422 653q0 184 90 301t244 117q185 0 274 -160l-125 -82q-62 86 -149 86t-137 -70t-50 -192q0 -115 54 -186.5t135 -71.5q80 0 147 74l121 -80q-91 -149 -270 -149 q-146 0 -240 117.5t-94 295.5z" />
<glyph unicode="&#xab;" horiz-adv-x="897" d="M242 649v142l374 194v-149l-245 -113l245 -115v-143zM596 649v142l375 194v-149l-244 -113l244 -115v-143z" />
<glyph unicode="&#xad;" horiz-adv-x="1173" d="M330 561l63 187h895l-59 -187h-899z" />
<glyph unicode="&#xae;" horiz-adv-x="1294" d="M113 846q0 101 40.5 194t110.5 162t170.5 110.5t214.5 41.5q236 0 391.5 -145.5t155.5 -362.5q0 -132 -71 -248t-198 -187t-278 -71q-114 0 -214.5 42t-170.5 111.5t-110.5 161.5t-40.5 191zM213 846q0 -104 51 -197t152 -154t231 -61q191 0 327 119.5t136 292.5 q0 75 -35 148.5t-95.5 131.5t-148 93.5t-184.5 35.5q-129 0 -230.5 -61t-152.5 -153t-51 -195zM481 563v549h197q79 0 124.5 -45.5t45.5 -130.5q0 -53 -21 -88t-69 -68l98 -217h-115l-94 201h-57v-201h-109zM590 877h90q57 0 57 59q0 65 -57 65h-90v-124z" />
<glyph unicode="&#xb4;" horiz-adv-x="370" d="M461 848l131 233h164l-205 -233h-90z" />
<glyph unicode="&#xb8;" horiz-adv-x="434" d="M135 -291l23 82q13 -8 57 -8q68 0 68 33q0 19 -10.5 25.5t-41.5 6.5h-28q-1 0 -33 -4v172h78v-86q119 0 119 -108q0 -68 -35.5 -97.5t-114.5 -29.5q-49 0 -82 14z" />
<glyph unicode="&#xbb;" horiz-adv-x="925" d="M268 465v149l244 115l-244 113v143l375 -184v-142zM623 465v149l245 115l-245 113v143l374 -184v-142z" />
<glyph unicode="&#xbf;" horiz-adv-x="1294" d="M-29 -266q0 26 15 80l61 186q25 74 111.5 130t175.5 56h221q225 0 287 189l121 373h448l-182 -562q-21 -69 -109 -127.5t-176 -58.5h-448l-62 -186h451l-64 -189h-669q-181 0 -181 109zM1024 934l59 188h451l-64 -188h-446z" />
<glyph unicode="&#xc0;" horiz-adv-x="1224" d="M41 0l303 934q24 76 111 132t174 56h671q179 0 179 -121q0 -23 -13 -67l-305 -934q-8 -21 -8 -57q0 -129 172 -129h897l-182 -562h-1346q-65 0 -117.5 42t-52.5 102q0 30 8 43l365 1122h-225l-183 -561h-448zM731 748h225l60 186h-223zM754 1450h164l131 -231h-91z" />
<glyph unicode="&#xc1;" horiz-adv-x="1224" d="M41 0l303 934q24 76 111 132t174 56h671q179 0 179 -121q0 -23 -13 -67l-305 -934q-8 -21 -8 -57q0 -129 172 -129h897l-182 -562h-1346q-65 0 -117.5 42t-52.5 102q0 30 8 43l365 1122h-225l-183 -561h-448zM731 748h225l60 186h-223zM901 1223l131 233h164l-205 -233 h-90z" />
<glyph unicode="&#xc2;" horiz-adv-x="1224" d="M41 0l303 934q24 76 111 132t174 56h671q179 0 179 -121q0 -23 -13 -67l-305 -934q-8 -21 -8 -57q0 -129 172 -129h897l-182 -562h-1346q-65 0 -117.5 42t-52.5 102q0 30 8 43l365 1122h-225l-183 -561h-448zM719 1245l192 230h144l198 -230h-151l-117 156l-119 -156 h-147zM731 748h225l60 186h-223z" />
<glyph unicode="&#xc3;" horiz-adv-x="1224" d="M41 0l303 934q24 76 111 132t174 56h671q179 0 179 -121q0 -23 -13 -67l-305 -934q-8 -21 -8 -57q0 -129 172 -129h897l-182 -562h-1346q-65 0 -117.5 42t-52.5 102q0 30 8 43l365 1122h-225l-183 -561h-448zM690 1307q65 125 180 125q47 0 84 -16.5t68.5 -33t64.5 -16.5 q69 0 109 82l74 -86q-44 -115 -176 -115q-44 0 -107 35t-98 35q-61 0 -115 -82zM731 748h225l60 186h-223z" />
<glyph unicode="&#xc4;" horiz-adv-x="1224" d="M41 0l303 934q24 76 111 132t174 56h671q179 0 179 -121q0 -23 -13 -67l-305 -934q-8 -21 -8 -57q0 -129 172 -129h897l-182 -562h-1346q-65 0 -117.5 42t-52.5 102q0 30 8 43l365 1122h-225l-183 -561h-448zM727 1380q0 50 30 80.5t79 30.5q45 0 76.5 -31t31.5 -80 q0 -44 -32 -76t-76 -32q-48 0 -78.5 31.5t-30.5 76.5zM731 748h225l60 186h-223zM1057 1380q0 48 32 79.5t76 31.5q48 0 78.5 -31t30.5 -80q0 -45 -31 -76.5t-78 -31.5q-43 0 -75.5 32t-32.5 76z" />
<glyph unicode="&#xc5;" horiz-adv-x="1224" d="M41 0l303 934q24 76 111 132t174 56h671q179 0 179 -121q0 -23 -13 -67l-305 -934q-8 -21 -8 -57q0 -129 172 -129h897l-182 -562h-1346q-65 0 -117.5 42t-52.5 102q0 30 8 43l365 1122h-225l-183 -561h-448zM731 748h225l60 186h-223zM877 1403q0 66 40.5 109.5 t102.5 43.5t104.5 -45.5t42.5 -107.5q0 -61 -42 -102t-105 -41q-62 0 -102.5 41t-40.5 102zM930 1407q0 -42 27 -70t65 -28q42 0 70 28t28 70q0 41 -29.5 69.5t-68.5 28.5q-36 0 -64 -29t-28 -69z" />
<glyph unicode="&#xc6;" horiz-adv-x="2002" d="M41 0l303 934q24 76 111 132t174 56h1585l-60 -188h-673l-60 -186h449l-64 -187h-448l-60 -186h674l-123 -375h-895q-74 0 -122 42t-48 103q0 13 4 41l115 355l-6 20h-225l-183 -561h-448zM731 748h225l60 186h-223z" />
<glyph unicode="&#xc7;" horiz-adv-x="1366" d="M152 131q0 36 8 55l243 748q25 69 115 128.5t170 59.5h899l-63 -188h-670l-182 -559h669l-118 -375h-899q-172 0 -172 131zM674 -291l22 82q13 -8 58 -8q67 0 67 33q0 19 -10 25.5t-41 6.5h-29l-32 -4v172h77v-86q119 0 119 -108q0 -68 -35 -97.5t-114 -29.5 q-49 0 -82 14z" />
<glyph unicode="&#xc8;" horiz-adv-x="1355" d="M127 145q0 13 4 41l246 748q22 67 115 127.5t170 60.5h897l-62 -188h-674l-59 -186h448l-61 -187h-449l-59 -186h672l-121 -375h-897q-73 0 -121.5 42t-48.5 103zM864 1450h164l131 -231h-90z" />
<glyph unicode="&#xc9;" horiz-adv-x="1355" d="M127 145q0 13 4 41l246 748q22 67 115 127.5t170 60.5h897l-62 -188h-674l-59 -186h448l-61 -187h-449l-59 -186h672l-121 -375h-897q-73 0 -121.5 42t-48.5 103zM973 1223l131 233h164l-205 -233h-90z" />
<glyph unicode="&#xca;" horiz-adv-x="1355" d="M127 145q0 13 4 41l246 748q22 67 115 127.5t170 60.5h897l-62 -188h-674l-59 -186h448l-61 -187h-449l-59 -186h672l-121 -375h-897q-73 0 -121.5 42t-48.5 103zM813 1245l193 230h143l199 -230h-152l-117 156l-118 -156h-148z" />
<glyph unicode="&#xcb;" horiz-adv-x="1355" d="M127 145q0 13 4 41l246 748q22 67 115 127.5t170 60.5h897l-62 -188h-674l-59 -186h448l-61 -187h-449l-59 -186h672l-121 -375h-897q-73 0 -121.5 42t-48.5 103zM741 1380q0 50 30 80.5t79 30.5q45 0 76.5 -31t31.5 -80q0 -44 -32 -76t-76 -32q-48 0 -78.5 31.5 t-30.5 76.5zM1071 1380q0 48 32.5 79.5t76.5 31.5q47 0 77.5 -31t30.5 -80q0 -45 -30.5 -76.5t-77.5 -31.5q-43 0 -76 32t-33 76z" />
<glyph unicode="&#xcc;" horiz-adv-x="710" d="M150 0l362 1122h451l-363 -1122h-450zM543 1450h164l131 -231h-90z" />
<glyph unicode="&#xcd;" horiz-adv-x="710" d="M150 0l362 1122h451l-363 -1122h-450zM690 1223l131 233h164l-205 -233h-90z" />
<glyph unicode="&#xce;" horiz-adv-x="710" d="M150 0l362 1122h451l-363 -1122h-450zM512 1245l193 230h143l199 -230h-152l-117 156l-119 -156h-147z" />
<glyph unicode="&#xcf;" horiz-adv-x="710" d="M150 0l362 1122h451l-363 -1122h-450zM532 1380q0 50 30 80.5t79 30.5q45 0 77 -31.5t32 -79.5q0 -44 -32.5 -76t-76.5 -32q-48 0 -78.5 31.5t-30.5 76.5zM862 1380q0 48 32.5 79.5t76.5 31.5q47 0 77.5 -31t30.5 -80q0 -45 -30.5 -76.5t-77.5 -31.5q-43 0 -76 32t-33 76 z" />
<glyph unicode="&#xd0;" horiz-adv-x="1376" d="M145 0l183 561h-117l63 187h113l123 374h897q77 0 124.5 -38t47.5 -99q0 -13 -10 -51l-242 -748q-24 -77 -109 -131.5t-176 -54.5h-897zM715 375h225l182 559h-225l-61 -186h170l-60 -187h-172z" />
<glyph unicode="&#xd1;" horiz-adv-x="1427" d="M43 0l365 1122h448l266 -561l181 561h450l-362 -1122q-13 -32 -13 -59q0 -127 174 -127h897l-182 -562h-1345q-174 0 -174 130q0 19 10 57l182 561l-266 561l-182 -561h-449zM760 1307q65 125 180 125q47 0 84 -16.5t68.5 -33t64.5 -16.5q69 0 109 82l73 -86 q-44 -115 -176 -115q-43 0 -107 35t-98 35q-60 0 -114 -82z" />
<glyph unicode="&#xd2;" horiz-adv-x="1370" d="M195 143q0 22 6 43l241 748q24 68 117.5 128t169.5 60h672q176 0 176 -123q0 -27 -12 -65l-242 -748q-24 -69 -116 -127.5t-169 -58.5h-673q-77 0 -123.5 42t-46.5 101zM711 375h223l182 559h-223zM872 1450h164l131 -231h-90z" />
<glyph unicode="&#xd3;" horiz-adv-x="1370" d="M195 143q0 22 6 43l241 748q24 68 117.5 128t169.5 60h672q176 0 176 -123q0 -27 -12 -65l-242 -748q-24 -69 -116 -127.5t-169 -58.5h-673q-77 0 -123.5 42t-46.5 101zM711 375h223l182 559h-223zM872 1223l132 233h163l-204 -233h-91z" />
<glyph unicode="&#xd4;" horiz-adv-x="1370" d="M195 143q0 22 6 43l241 748q24 68 117.5 128t169.5 60h672q176 0 176 -123q0 -27 -12 -65l-242 -748q-24 -69 -116 -127.5t-169 -58.5h-673q-77 0 -123.5 42t-46.5 101zM711 375h223l182 559h-223zM754 1245l192 230h144l198 -230h-151l-117 156l-119 -156h-147z" />
<glyph unicode="&#xd5;" horiz-adv-x="1370" d="M195 143q0 22 6 43l241 748q24 68 117.5 128t169.5 60h672q176 0 176 -123q0 -27 -12 -65l-242 -748q-24 -69 -116 -127.5t-169 -58.5h-673q-77 0 -123.5 42t-46.5 101zM711 375h223l182 559h-223zM731 1307q65 125 180 125q47 0 84 -16.5t68.5 -33t64.5 -16.5 q69 0 109 82l74 -86q-44 -115 -176 -115q-43 0 -107 35t-98 35q-61 0 -115 -82z" />
<glyph unicode="&#xd6;" horiz-adv-x="1370" d="M195 143q0 22 6 43l241 748q24 68 117.5 128t169.5 60h672q176 0 176 -123q0 -27 -12 -65l-242 -748q-24 -69 -116 -127.5t-169 -58.5h-673q-77 0 -123.5 42t-46.5 101zM711 375h223l182 559h-223zM795 1380q0 50 29.5 80.5t78.5 30.5q45 0 77 -31.5t32 -79.5 q0 -44 -32.5 -76t-76.5 -32q-48 0 -78 31t-30 77zM1124 1380q0 48 32.5 79.5t76.5 31.5q47 0 77.5 -31t30.5 -80q0 -45 -30.5 -76.5t-77.5 -31.5q-43 0 -76 32t-33 76z" />
<glyph unicode="&#xd8;" horiz-adv-x="1370" d="M195 143q0 22 6 43l241 748q24 68 117.5 128t169.5 60h672q176 0 176 -123q0 -27 -12 -65l-242 -748q-24 -69 -116 -127.5t-169 -58.5h-673q-77 0 -123.5 42t-46.5 101zM750 494l337 440h-194zM766 375h168l121 368z" />
<glyph unicode="&#xd9;" horiz-adv-x="1327" d="M150 143q0 22 6 43l305 936h446l-241 -747h223l244 747h448l-303 -936q-26 -76 -113 -131t-174 -55h-672q-72 0 -120.5 41.5t-48.5 101.5zM850 1450h164l131 -231h-90z" />
<glyph unicode="&#xda;" horiz-adv-x="1327" d="M150 143q0 22 6 43l305 936h446l-241 -747h223l244 747h448l-303 -936q-26 -76 -113 -131t-174 -55h-672q-72 0 -120.5 41.5t-48.5 101.5zM852 1223l131 233h164l-205 -233h-90z" />
<glyph unicode="&#xdb;" horiz-adv-x="1327" d="M150 143q0 22 6 43l305 936h446l-241 -747h223l244 747h448l-303 -936q-26 -76 -113 -131t-174 -55h-672q-72 0 -120.5 41.5t-48.5 101.5zM766 1245l192 230h144l198 -230h-151l-117 156l-119 -156h-147z" />
<glyph unicode="&#xdc;" horiz-adv-x="1327" d="M150 143q0 22 6 43l305 936h446l-241 -747h223l244 747h448l-303 -936q-26 -76 -113 -131t-174 -55h-672q-72 0 -120.5 41.5t-48.5 101.5zM795 1380q0 50 29.5 80.5t78.5 30.5q45 0 77 -31.5t32 -79.5q0 -44 -32.5 -76t-76.5 -32q-48 0 -78 31t-30 77zM1124 1380 q0 48 32.5 79.5t76.5 31.5q47 0 77.5 -31t30.5 -80q0 -45 -30.5 -76.5t-77.5 -31.5q-43 0 -76 32t-33 76z" />
<glyph unicode="&#xdd;" horiz-adv-x="1257" d="M-1096 -748l183 562h899q113 0 192.5 50.5t91.5 135.5l140 1122h448l-129 -747l354 747h449l-883 -1683q-43 -82 -122.5 -134.5t-161.5 -52.5h-1461zM922 1223l131 233h164l-205 -233h-90z" />
<glyph unicode="&#xde;" horiz-adv-x="1269" d="M115 0l364 1122h420l-61 -241h462q63 0 118 -42t55 -96q0 -9 -11 -51l-59 -186q-25 -71 -111.5 -129t-173.5 -58h-448l-105 -319h-450zM729 506h225l62 186h-225z" />
<glyph unicode="&#xe0;" d="M197 137q0 22 6 49l123 375q22 69 109.5 128t174.5 59h674l-244 -748h-233l27 61q-113 -61 -183 -61h-284q-66 0 -118 39t-52 98zM715 375h221l63 186h-225zM760 1075h164l131 -231h-90z" />
<glyph unicode="&#xe1;" d="M197 137q0 22 6 49l123 375q22 69 109.5 128t174.5 59h674l-244 -748h-233l27 61q-113 -61 -183 -61h-284q-66 0 -118 39t-52 98zM715 375h221l63 186h-225zM858 848l131 233h164l-205 -233h-90z" />
<glyph unicode="&#xe2;" d="M197 137q0 22 6 49l123 375q22 69 109.5 128t174.5 59h674l-244 -748h-233l27 61q-113 -61 -183 -61h-284q-66 0 -118 39t-52 98zM690 870l193 230h143l199 -230h-152l-117 156l-118 -156h-148zM715 375h221l63 186h-225z" />
<glyph unicode="&#xe3;" d="M197 137q0 22 6 49l123 375q22 69 109.5 128t174.5 59h674l-244 -748h-233l27 61q-113 -61 -183 -61h-284q-66 0 -118 39t-52 98zM664 932q65 125 180 125q47 0 84 -16.5t68.5 -33t64.5 -16.5q68 0 108 82l74 -86q-44 -115 -176 -115q-44 0 -107.5 35t-97.5 35 q-60 0 -114 -82zM715 375h221l63 186h-225z" />
<glyph unicode="&#xe4;" d="M197 137q0 22 6 49l123 375q22 69 109.5 128t174.5 59h674l-244 -748h-233l27 61q-113 -61 -183 -61h-284q-66 0 -118 39t-52 98zM682 1006q0 50 30 80t79 30q45 0 76.5 -31t31.5 -79q0 -44 -32 -76.5t-76 -32.5q-48 0 -78.5 31.5t-30.5 77.5zM715 375h221l63 186h-225z M1012 1006q0 48 32 79t76 31q48 0 78.5 -30.5t30.5 -79.5q0 -45 -31 -77t-78 -32q-43 0 -75.5 32.5t-32.5 76.5z" />
<glyph unicode="&#xe5;" d="M197 137q0 22 6 49l123 375q22 69 109.5 128t174.5 59h674l-244 -748h-233l27 61q-113 -61 -183 -61h-284q-66 0 -118 39t-52 98zM715 375h221l63 186h-225zM868 1028q0 66 41 110t103 44t104.5 -45.5t42.5 -108.5q0 -61 -42 -102t-105 -41q-62 0 -103 41t-41 102z M922 1032q0 -42 27 -70t65 -28q42 0 70 28t28 70q0 41 -29.5 69.5t-68.5 28.5q-36 0 -64 -29t-28 -69z" />
<glyph unicode="&#xe6;" horiz-adv-x="1878" d="M197 137q0 22 6 49l123 375q22 69 109.5 128t174.5 59h1217q137 0 137 -86q0 -59 -63 -101l-283 -186h225l-123 -375h-880l43 104q-131 -104 -265 -104h-251q-66 0 -118 39t-52 98zM715 375h221l63 186h-225zM1395 375l284 186h-225z" />
<glyph unicode="&#xe7;" horiz-adv-x="1118" d="M186 131q0 13 11 55l122 375q19 70 113 128.5t172 58.5h674l-64 -187h-448l-59 -186h448l-123 -375h-672q-174 0 -174 131zM444 -291l23 82q13 -8 57 -8q68 0 68 33q0 19 -10 25.5t-41 6.5h-29q-1 0 -33 -4v172h78v-86q119 0 119 -108q0 -68 -35.5 -97.5t-114.5 -29.5 q-49 0 -82 14z" />
<glyph unicode="&#xe8;" horiz-adv-x="1146" d="M195 139q0 26 6 47l123 375q23 71 112 129t172 58h535q139 0 139 -86q0 -57 -65 -101l-283 -186h225l-121 -375h-671q-73 0 -122.5 40.5t-49.5 98.5zM711 375l286 186h-225zM762 1075h164l131 -231h-90z" />
<glyph unicode="&#xe9;" horiz-adv-x="1146" d="M195 139q0 26 6 47l123 375q23 71 112 129t172 58h535q139 0 139 -86q0 -57 -65 -101l-283 -186h225l-121 -375h-671q-73 0 -122.5 40.5t-49.5 98.5zM711 375l286 186h-225zM762 848l131 233h164l-205 -233h-90z" />
<glyph unicode="&#xea;" horiz-adv-x="1146" d="M195 139q0 26 6 47l123 375q23 71 112 129t172 58h535q139 0 139 -86q0 -57 -65 -101l-283 -186h225l-121 -375h-671q-73 0 -122.5 40.5t-49.5 98.5zM643 870l193 230h143l199 -230h-152l-117 156l-118 -156h-148zM711 375l286 186h-225z" />
<glyph unicode="&#xeb;" horiz-adv-x="1146" d="M195 139q0 26 6 47l123 375q23 71 112 129t172 58h535q139 0 139 -86q0 -57 -65 -101l-283 -186h225l-121 -375h-671q-73 0 -122.5 40.5t-49.5 98.5zM635 1006q0 50 29.5 80t78.5 30q45 0 77 -31t32 -79q0 -44 -32.5 -76.5t-76.5 -32.5q-48 0 -78 31.5t-30 77.5zM711 375 l286 186h-225zM965 1006q0 48 32 79t76 31q48 0 78.5 -30.5t30.5 -79.5q0 -45 -31 -77t-78 -32q-43 0 -75.5 32.5t-32.5 76.5z" />
<glyph unicode="&#xec;" horiz-adv-x="690" d="M150 0l243 748h449l-242 -748h-450zM530 1075h164l131 -231h-90z" />
<glyph unicode="&#xed;" horiz-adv-x="690" d="M150 0l243 748h449l-242 -748h-450zM532 848l132 233h163l-204 -233h-91z" />
<glyph unicode="&#xee;" horiz-adv-x="690" d="M150 0l243 748h449l-242 -748h-450zM414 870l192 230h144l198 -230h-151l-117 156l-119 -156h-147z" />
<glyph unicode="&#xef;" horiz-adv-x="690" d="M150 0l243 748h449l-242 -748h-450zM412 1006q0 50 29.5 80t78.5 30q45 0 77 -31t32 -79q0 -44 -32.5 -76.5t-76.5 -32.5q-48 0 -78 31.5t-30 77.5zM741 1006q0 48 32.5 79t76.5 31q48 0 78 -30.5t30 -79.5q0 -45 -31 -77t-77 -32q-43 0 -76 32.5t-33 76.5z" />
<glyph unicode="&#xf0;" horiz-adv-x="1126" d="M193 152q0 19 6 34l120 375q24 75 113 131t172 56h453l12 36q12 41 12 70q0 117 -176 117h-200l49 151h424q73 0 121.5 -39.5t48.5 -99.5q0 -23 -7 -47l-245 -750q-25 -73 -110 -129.5t-177 -56.5h-447q-67 0 -118 45.5t-51 106.5zM483 375h224l63 186h-225z" />
<glyph unicode="&#xf1;" horiz-adv-x="1138" d="M145 0l244 748h672q72 0 121 -41.5t49 -102.5q0 -22 -6 -43l-183 -561h-223l182 561h-225l-182 -561h-449zM614 932q65 125 181 125q47 0 84 -16.5t68.5 -33t64.5 -16.5q68 0 108 82l74 -86q-44 -115 -176 -115q-44 0 -107 35t-98 35q-61 0 -115 -82z" />
<glyph unicode="&#xf2;" horiz-adv-x="1126" d="M193 152q0 19 6 34l120 375q24 75 113 131t172 56h449q74 0 123 -38.5t49 -99.5q0 -30 -8 -49l-121 -375q-25 -73 -110 -129.5t-177 -56.5h-447q-67 0 -118 45.5t-51 106.5zM483 375h224l63 186h-225zM750 1075h163l131 -231h-90z" />
<glyph unicode="&#xf3;" horiz-adv-x="1126" d="M193 152q0 19 6 34l120 375q24 75 113 131t172 56h449q74 0 123 -38.5t49 -99.5q0 -30 -8 -49l-121 -375q-25 -73 -110 -129.5t-177 -56.5h-447q-67 0 -118 45.5t-51 106.5zM483 375h224l63 186h-225zM752 848l131 233h164l-205 -233h-90z" />
<glyph unicode="&#xf4;" horiz-adv-x="1126" d="M193 152q0 19 6 34l120 375q24 75 113 131t172 56h449q74 0 123 -38.5t49 -99.5q0 -30 -8 -49l-121 -375q-25 -73 -110 -129.5t-177 -56.5h-447q-67 0 -118 45.5t-51 106.5zM483 375h224l63 186h-225zM631 870l192 230h144l198 -230h-151l-117 156l-119 -156h-147z" />
<glyph unicode="&#xf5;" horiz-adv-x="1126" d="M193 152q0 19 6 34l120 375q24 75 113 131t172 56h449q74 0 123 -38.5t49 -99.5q0 -30 -8 -49l-121 -375q-25 -73 -110 -129.5t-177 -56.5h-447q-67 0 -118 45.5t-51 106.5zM483 375h224l63 186h-225zM608 932q65 125 180 125q47 0 84 -16.5t69 -33t65 -16.5q68 0 108 82 l74 -86q-44 -115 -176 -115q-44 0 -107 35t-98 35q-61 0 -115 -82z" />
<glyph unicode="&#xf6;" horiz-adv-x="1126" d="M193 152q0 19 6 34l120 375q24 75 113 131t172 56h449q74 0 123 -38.5t49 -99.5q0 -30 -8 -49l-121 -375q-25 -73 -110 -129.5t-177 -56.5h-447q-67 0 -118 45.5t-51 106.5zM483 375h224l63 186h-225zM625 1006q0 50 29.5 80t78.5 30q45 0 77 -31t32 -79 q0 -44 -32.5 -76.5t-76.5 -32.5q-48 0 -78 31.5t-30 77.5zM954 1006q0 48 32.5 79t76.5 31q48 0 78 -30.5t30 -79.5q0 -45 -31 -77t-77 -32q-43 0 -76 32.5t-33 76.5z" />
<glyph unicode="&#xf8;" horiz-adv-x="1126" d="M193 152q0 19 6 34l120 375q24 75 113 131t172 56h449q74 0 123 -38.5t49 -99.5q0 -30 -8 -49l-121 -375q-25 -73 -110 -129.5t-177 -56.5h-447q-67 0 -118 45.5t-51 106.5zM494 406l235 155h-184zM535 354h176l61 162z" />
<glyph unicode="&#xf9;" d="M199 141q0 32 8 45l182 562h447l-121 -373h225l121 373h223l-182 -562q-27 -79 -107.5 -132.5t-177.5 -53.5h-448q-77 0 -123.5 40t-46.5 101zM723 1075h164l131 -231h-90z" />
<glyph unicode="&#xfa;" d="M199 141q0 32 8 45l182 562h447l-121 -373h225l121 373h223l-182 -562q-27 -79 -107.5 -132.5t-177.5 -53.5h-448q-77 0 -123.5 40t-46.5 101zM874 848l132 233h163l-204 -233h-91z" />
<glyph unicode="&#xfb;" d="M199 141q0 32 8 45l182 562h447l-121 -373h225l121 373h223l-182 -562q-27 -79 -107.5 -132.5t-177.5 -53.5h-448q-77 0 -123.5 40t-46.5 101zM641 870l193 230h143l199 -230h-152l-117 156l-119 -156h-147z" />
<glyph unicode="&#xfc;" d="M199 141q0 32 8 45l182 562h447l-121 -373h225l121 373h223l-182 -562q-27 -79 -107.5 -132.5t-177.5 -53.5h-448q-77 0 -123.5 40t-46.5 101zM633 1006q0 50 29.5 80t78.5 30q45 0 77 -31t32 -79q0 -44 -32.5 -76.5t-76.5 -32.5q-48 0 -78 31.5t-30 77.5zM963 1006 q0 48 32 79t76 31q48 0 78.5 -30.5t30.5 -79.5q0 -45 -31 -77t-78 -32q-43 0 -75.5 32.5t-32.5 76.5z" />
<glyph unicode="&#xfd;" horiz-adv-x="1079" d="M-836 -748l183 562h895q103 0 177 49.5t107 136.5h-221q-174 0 -174 135q0 13 10 51l183 562h223l-123 -373h225l123 373h449l-426 -1309q-27 -84 -109 -135.5t-176 -51.5h-1346zM727 848l131 233h164l-205 -233h-90z" />
<glyph unicode="&#xfe;" horiz-adv-x="1118" d="M-1233 -748l182 562h897q224 0 285 186l363 1122h450l-123 -374h223q79 0 128 -35.5t49 -96.5q0 -13 -11 -55l-120 -375q-20 -68 -109.5 -127t-175.5 -59h-225l-183 -561q-24 -72 -114 -129.5t-170 -57.5h-1346zM702 375h226l57 186h-225z" />
<glyph unicode="&#xff;" horiz-adv-x="1079" d="M-836 -748l183 562h895q103 0 177 49.5t107 136.5h-221q-174 0 -174 135q0 13 10 51l183 562h223l-123 -373h225l123 373h449l-426 -1309q-27 -84 -109 -135.5t-176 -51.5h-1346zM602 1006q0 50 30 80t79 30q45 0 76.5 -31t31.5 -79q0 -44 -32 -76.5t-76 -32.5 q-48 0 -78.5 31.5t-30.5 77.5zM932 1006q0 48 32 79t76 31q48 0 78.5 -30.5t30.5 -79.5q0 -45 -31 -77t-78 -32q-43 0 -75.5 32.5t-32.5 76.5z" />
<glyph unicode="&#x152;" horiz-adv-x="2011" d="M195 143q0 22 6 43l241 748q23 70 115.5 129t171.5 59h1587l-59 -188h-674l-59 -186h448l-63 -187h-447l-61 -186h674l-121 -375h-1589q-77 0 -123.5 42t-46.5 101zM711 375h223l182 559h-223z" />
<glyph unicode="&#x153;" horiz-adv-x="1654" d="M193 152q0 19 6 34l120 375q24 75 113 131t172 56h1002q139 0 139 -86q0 -56 -66 -101l-282 -186h225l-123 -375h-1137q-67 0 -118 45.5t-51 106.5zM483 375h224l63 186h-225zM1174 375l286 186h-225z" />
<glyph unicode="&#x178;" horiz-adv-x="1257" d="M-1096 -748l183 562h899q113 0 192.5 50.5t91.5 135.5l140 1122h448l-129 -747l354 747h449l-883 -1683q-43 -82 -122.5 -134.5t-161.5 -52.5h-1461zM690 1380q0 50 30 80.5t79 30.5q45 0 76.5 -31t31.5 -80q0 -44 -32 -76t-76 -32q-48 0 -78.5 31.5t-30.5 76.5z M1020 1380q0 48 32 79.5t76 31.5q48 0 78.5 -31t30.5 -80q0 -45 -31 -76.5t-78 -31.5q-43 0 -75.5 32t-32.5 76z" />
<glyph unicode="&#x2c6;" horiz-adv-x="647" d="M391 870l193 230h143l199 -230h-152l-117 156l-118 -156h-148z" />
<glyph unicode="&#x2dc;" horiz-adv-x="749" d="M420 932q65 125 180 125q47 0 84 -16.5t68.5 -33t64.5 -16.5q69 0 109 82l73 -86q-44 -115 -176 -115q-43 0 -107 35t-98 35q-60 0 -114 -82z" />
<glyph unicode="&#x2000;" horiz-adv-x="778" />
<glyph unicode="&#x2001;" horiz-adv-x="1556" />
<glyph unicode="&#x2002;" horiz-adv-x="778" />
<glyph unicode="&#x2003;" horiz-adv-x="1556" />
<glyph unicode="&#x2004;" horiz-adv-x="518" />
<glyph unicode="&#x2005;" horiz-adv-x="389" />
<glyph unicode="&#x2006;" horiz-adv-x="259" />
<glyph unicode="&#x2007;" horiz-adv-x="259" />
<glyph unicode="&#x2008;" horiz-adv-x="194" />
<glyph unicode="&#x2009;" horiz-adv-x="311" />
<glyph unicode="&#x200a;" horiz-adv-x="86" />
<glyph unicode="&#x2010;" horiz-adv-x="1173" d="M330 561l63 187h895l-59 -187h-899z" />
<glyph unicode="&#x2011;" horiz-adv-x="1173" d="M330 561l63 187h895l-59 -187h-899z" />
<glyph unicode="&#x2012;" horiz-adv-x="1173" d="M330 561l63 187h895l-59 -187h-899z" />
<glyph unicode="&#x2013;" horiz-adv-x="1239" d="M330 561l67 187h957l-63 -187h-961z" />
<glyph unicode="&#x2014;" horiz-adv-x="2263" d="M330 561l135 187h1913l-126 -187h-1922z" />
<glyph unicode="&#x2026;" horiz-adv-x="3457" d="M164 -186l61 186h449l-64 -186h-446zM1505 -186l62 186h448l-63 -186h-447zM2847 -186l61 186h449l-64 -186h-446z" />
<glyph unicode="&#x202f;" horiz-adv-x="311" />
<glyph unicode="&#x2039;" horiz-adv-x="550" d="M242 649v142l374 194v-149l-245 -113l245 -115v-143z" />
<glyph unicode="&#x203a;" horiz-adv-x="550" d="M242 465v149l245 115l-245 113v143l374 -184v-142z" />
<glyph unicode="&#x205f;" horiz-adv-x="389" />
<glyph unicode="&#x2122;" horiz-adv-x="1343" d="M248 1159v129h475v-129h-164v-534h-141v534h-170zM784 629v663h160l127 -344l125 344h156v-663h-135v362l-144 -368l-158 383v-377h-131z" />
<glyph unicode="&#x25fc;" horiz-adv-x="747" d="M0 0v748h748v-748h-748z" />
</font>
</defs>
</svg>
